#!OML:ASF H:\Dans Jumps\Project 1\Capture day 1\Session 1\subject.ASF
:FULLY-SPECIFIED
:DEGREES
83
root -0.0174335 17.5439 -14.3725 9.75566 1.28412 -1.76337
lowerback 2.09625 -0.669727 0.859771
upperback 5.79614 -0.97653 1.99352
thorax 4.8302 -0.499095 1.55955
lowerneck -11.007 0.49087 -2.45444
upperneck 36.6645 0.839534 1.45926
head 14.4085 0.215615 1.16281
rclavicle -4.96962e-016 -2.46493e-014
rhumerus -19.987 -14.5708 -80.4152
rradius 26.0538
rwrist 28.3085
rhand -21.1767 -27.25
rfingers 7.12502
rthumb 5.20372 -57.1661
lclavicle -4.96962e-016 -2.46493e-014
lhumerus -14.1383 1.77421 87.8327
lradius 17.8561
lwrist 5.13057
lhand -25.7404 -4.65128
lfingers 7.12502
lthumb 0.796511 25.327
rfemur -19.3329 -1.94165 19.8423
rtibia 23.4004
rfoot -12.8382 -2.04227
rtoes 7.75844
lfemur -19.0413 5.11305 -16.3304
ltibia 22.8377
lfoot -10.6189 5.00724
ltoes -6.71209
84
root -0.0143626 17.5381 -14.3771 9.66528 1.22319 -1.77123
lowerback 2.11146 -0.633439 0.885859
upperback 5.81328 -0.928763 2.00056
thorax 4.83828 -0.47439 1.55341
lowerneck -10.9941 0.458998 -2.45438
upperneck 36.7248 0.798248 1.44357
head 14.4353 0.195641 1.15109
rclavicle -3.47873e-015 1.15295e-014
rhumerus -19.9331 -14.7078 -80.3705
rradius 26.066
rwrist 28.2686
rhand -21.2167 -27.3045
rfingers 7.12502
rthumb 5.16515 -57.2216
lclavicle -3.47873e-015 1.15295e-014
lhumerus -14.1582 1.5838 87.9645
lradius 17.9747
lwrist 5.37986
lhand -25.9547 -4.83712
lfingers 7.12502
lthumb 0.589463 25.1418
rfemur -19.3425 -1.87179 19.8291
rtibia 23.5693
rfoot -12.9048 -2.07136
rtoes 7.69005
lfemur -19.0725 5.13526 -16.337
ltibia 23.0725
lfoot -10.6631 5.09586
ltoes -6.79154
85
root -0.0112322 17.5321 -14.3821 9.58026 1.16152 -1.78055
lowerback 2.12759 -0.597633 0.913709
upperback 5.83015 -0.881593 2.00684
thorax 4.84557 -0.449878 1.5455
lowerneck -10.9765 0.431852 -2.45402
upperneck 36.7671 0.761302 1.43439
head 14.4524 0.178603 1.1423
rclavicle -1.98785e-015 -7.95139e-016
rhumerus -19.8829 -14.8265 -80.339
rradius 26.0912
rwrist 28.1951
rhand -21.2326 -27.3773
rfingers 7.12502
rthumb 5.14972 -57.2947
lclavicle -1.98785e-015 -7.95139e-016
lhumerus -14.1857 1.38731 88.0888
lradius 18.0944
lwrist 5.61959
lhand -26.1614 -5.02737
lfingers 7.12502
lthumb 0.389839 24.952
rfemur -19.3612 -1.79576 19.8169
rtibia 23.7417
rfoot -12.974 -2.10746
rtoes 7.61958
lfemur -19.1156 5.1604 -16.3427
ltibia 23.316
lfoot -10.7129 5.18105
ltoes -6.86021
86
root -0.00805684 17.526 -14.3875 9.50258 1.10356 -1.79406
lowerback 2.14435 -0.564167 0.945863
upperback 5.84566 -0.837562 2.01402
thorax 4.85114 -0.426748 1.53603
lowerneck -10.9606 0.4082 -2.45708
upperneck 36.7958 0.727492 1.43323
head 14.4632 0.163614 1.13769
rclavicle -3.77691e-015 3.57812e-015
rhumerus -19.8328 -14.9251 -80.3206
rradius 26.123
rwrist 28.0959
rhand -21.2369 -27.459
rfingers 7.12502
rthumb 5.14558 -57.3765
lclavicle -3.77691e-015 3.57812e-015
lhumerus -14.2213 1.19505 88.2042
lradius 18.2163
lwrist 5.84042
lhand -26.3414 -5.19967
lfingers 7.12502
lthumb 0.216055 24.78
rfemur -19.3899 -1.722 19.81
rtibia 23.9161
rfoot -13.0481 -2.14637
rtoes 7.54321
lfemur -19.1724 5.18876 -16.3442
ltibia 23.566
lfoot -10.7685 5.2582
ltoes -6.9163
87
root -0.00471188 17.5197 -14.3931 9.42934 1.05407 -1.80516
lowerback 2.16705 -0.536574 0.975339
upperback 5.85872 -0.801149 2.0218
thorax 4.85098 -0.40754 1.52856
lowerneck -10.9392 0.387826 -2.46692
upperneck 36.8076 0.698396 1.43663
head 14.4646 0.150444 1.13657
rclavicle 6.85807e-015 9.54166e-015
rhumerus -19.7853 -14.9946 -80.3142
rradius 26.1589
rwrist 27.9744
rhand -21.2414 -27.5419
rfingers 7.12502
rthumb 5.14124 -57.4596
lclavicle 6.85807e-015 9.54166e-015
lhumerus -14.2601 0.998715 88.3103
lradius 18.3311
lwrist 6.05885
lhand -26.4922 -5.35011
lfingers 7.12502
lthumb 0.0703499 24.6296
rfemur -19.4228 -1.66504 19.8014
rtibia 24.0909
rfoot -13.1291 -2.17905
rtoes 7.45562
lfemur -19.2364 5.21755 -16.3488
ltibia 23.8172
lfoot -10.8292 5.32494
ltoes -6.96677
88
root -0.00135644 17.5133 -14.3989 9.36269 1.00781 -1.81854
lowerback 2.18747 -0.512065 1.00588
upperback 5.87196 -0.768918 2.02993
thorax 4.85243 -0.390369 1.52073
lowerneck -10.9289 0.369732 -2.47894
upperneck 36.8124 0.672184 1.44366
head 14.4652 0.138707 1.13774
rclavicle -1.49089e-015 -6.75868e-015
rhumerus -19.7399 -15.0381 -80.3195
rradius 26.1986
rwrist 27.8499
rhand -21.249 -27.6043
rfingers 7.12502
rthumb 5.13396 -57.5221
lclavicle -1.49089e-015 -6.75868e-015
lhumerus -14.3052 0.814287 88.4054
lradius 18.4436
lwrist 6.25696
lhand -26.6074 -5.46598
lfingers 7.12502
lthumb -0.0408601 24.5138
rfemur -19.4637 -1.61475 19.7964
rtibia 24.2655
rfoot -13.2136 -2.20814
rtoes 7.35942
lfemur -19.3072 5.25084 -16.3509
ltibia 24.0631
lfoot -10.8918 5.38072
ltoes -7.00866
